<?xml version="1.0" encoding="UTF-8" standalone="no"?>
<!-- Created with Inkscape (http://www.inkscape.org/) -->

<svg
   xmlns:dc="http://purl.org/dc/elements/1.1/"
   xmlns:cc="http://creativecommons.org/ns#"
   xmlns:rdf="http://www.w3.org/1999/02/22-rdf-syntax-ns#"
   xmlns:svg="http://www.w3.org/2000/svg"
   xmlns="http://www.w3.org/2000/svg"
   xmlns:sodipodi="http://sodipodi.sourceforge.net/DTD/sodipodi-0.dtd"
   xmlns:inkscape="http://www.inkscape.org/namespaces/inkscape"
   width="176mm"
   height="250mm"
   viewBox="0 0 176 250"
   version="1.1"
   id="svg379"
   inkscape:version="0.92.5 (2060ec1f9f, 2020-04-08)"
   sodipodi:docname="cover2.svg">
  <defs
     id="defs373">
    <filter
       style="color-interpolation-filters:sRGB;"
       inkscape:label="Greyscale"
       id="filter1283">
      <feColorMatrix
         values="0.5 0.5 0 0 0 0.5 0.5 0 0 0 0.5 0.5 0 0 0 0 0 0 1 0 "
         id="feColorMatrix1281" />
    </filter>
    <filter
       style="color-interpolation-filters:sRGB;"
       inkscape:label="Greyscale"
       id="filter1287">
      <feColorMatrix
         values="0.5 0.5 0 0 0 0.5 0.5 0 0 0 0.5 0.5 0 0 0 0 0 0 1 0 "
         id="feColorMatrix1285" />
    </filter>
    <filter
       style="color-interpolation-filters:sRGB;"
       inkscape:label="Greyscale"
       id="filter1291">
      <feColorMatrix
         values="0.5 0.5 0 0 0 0.5 0.5 0 0 0 0.5 0.5 0 0 0 0 0 0 1 0 "
         id="feColorMatrix1289" />
    </filter>
    <filter
       style="color-interpolation-filters:sRGB;"
       inkscape:label="Greyscale"
       id="filter1295">
      <feColorMatrix
         values="0.5 0.5 0 0 0 0.5 0.5 0 0 0 0.5 0.5 0 0 0 0 0 0 1 0 "
         id="feColorMatrix1293" />
    </filter>
    <filter
       style="color-interpolation-filters:sRGB;"
       inkscape:label="Greyscale"
       id="filter1299">
      <feColorMatrix
         values="0.5 0.5 0 0 0 0.5 0.5 0 0 0 0.5 0.5 0 0 0 0 0 0 1 0 "
         id="feColorMatrix1297" />
    </filter>
    <filter
       style="color-interpolation-filters:sRGB;"
       inkscape:label="Greyscale"
       id="filter1303">
      <feColorMatrix
         values="0.5 0.5 0 0 0 0.5 0.5 0 0 0 0.5 0.5 0 0 0 0 0 0 1 0 "
         id="feColorMatrix1301" />
    </filter>
    <filter
       style="color-interpolation-filters:sRGB;"
       inkscape:label="Greyscale"
       id="filter1307">
      <feColorMatrix
         values="0.5 0.5 0 0 0 0.5 0.5 0 0 0 0.5 0.5 0 0 0 0 0 0 1 0 "
         id="feColorMatrix1305" />
    </filter>
    <filter
       style="color-interpolation-filters:sRGB;"
       inkscape:label="Greyscale"
       id="filter1311">
      <feColorMatrix
         values="0.5 0.5 0 0 0 0.5 0.5 0 0 0 0.5 0.5 0 0 0 0 0 0 1 0 "
         id="feColorMatrix1309" />
    </filter>
    <filter
       style="color-interpolation-filters:sRGB;"
       inkscape:label="Greyscale"
       id="filter1315">
      <feColorMatrix
         values="0.5 0.5 0 0 0 0.5 0.5 0 0 0 0.5 0.5 0 0 0 0 0 0 1 0 "
         id="feColorMatrix1313" />
    </filter>
    <filter
       style="color-interpolation-filters:sRGB;"
       inkscape:label="Greyscale"
       id="filter1319">
      <feColorMatrix
         values="0.5 0.5 0 0 0 0.5 0.5 0 0 0 0.5 0.5 0 0 0 0 0 0 1 0 "
         id="feColorMatrix1317" />
    </filter>
  </defs>
  <sodipodi:namedview
     id="base"
     pagecolor="#ffffff"
     bordercolor="#666666"
     borderopacity="1.0"
     inkscape:pageopacity="0.0"
     inkscape:pageshadow="2"
     inkscape:zoom="0.57361667"
     inkscape:cx="332.59843"
     inkscape:cy="472.44094"
     inkscape:document-units="mm"
     inkscape:current-layer="g393"
     showgrid="false"
     inkscape:window-width="1364"
     inkscape:window-height="726"
     inkscape:window-x="0"
     inkscape:window-y="20"
     inkscape:window-maximized="1"
     inkscape:snap-global="false"
     inkscape:lockguides="false"
     showguides="true" />
  <metadata
     id="metadata376">
    <rdf:RDF>
      <cc:Work
         rdf:about="">
        <dc:format>image/svg+xml</dc:format>
        <dc:type
           rdf:resource="http://purl.org/dc/dcmitype/StillImage" />
        <dc:title />
      </cc:Work>
    </rdf:RDF>
  </metadata>
  <g
     inkscape:label="Layer 1"
     inkscape:groupmode="layer"
     id="layer1"
     transform="translate(0,-47)">
    <g
       transform="matrix(0.80677525,0,0,0.80677525,18.632532,65.242801)"
       id="g14923"
       style="fill:#808000">
      <g
         id="g393">
        <g
           id="g2674"
           transform="matrix(0.963817,0,0,0.963817,3.1308071,6.266132)">
          <g
             id="g2631">
            <g
               id="g914"
               style="stroke:#8c8c8c;stroke-width:0.5;stroke-miterlimit:4;stroke-dasharray:0.5, 1;stroke-dashoffset:0;stroke-opacity:1"
               transform="matrix(-0.80372114,-0.44171513,-0.44171513,0.80372114,214.44659,137.84382)" />
          </g>
        </g>
        <g
           id="g412"
           transform="matrix(0.963817,0,0,0.963817,21.35373,-20.528396)">
          <path
             style="fill:#999999;fill-opacity:1;stroke:none;stroke-width:0.08515441"
             d="m 165.50139,141.13545 c 6.34835,10.09372 8.29285,22.85153 4.19925,34.9865 -5.18232,15.3633 -18.66894,25.66017 -33.78396,27.58735 7.04408,-12.34545 12.35493,-27.47383 15.16981,-32.56355 4.31593,-7.49029 10.49791,-18.71759 14.4149,-30.0103 z M 110.32902,198.5589 C 93.7459,188.99755 85.592154,168.69511 91.936115,149.88906 c 1.652027,-4.89727 4.150037,-9.2782 7.273416,-13.03893 0.399778,0.75864 0.802919,1.54283 1.206069,2.3565 7.77536,2.62303 19.87288,5.87906 18.60163,15.75982 -0.50849,3.95231 -4.51852,19.50739 -0.81597,20.75617 3.33244,1.12422 17.20102,-6.98138 12.82952,5.9774 -1.37175,4.06602 -12.61742,10.44944 -20.70176,16.85888 z m 10.72457,-75.38536 c 4.69631,-1.16142 9.62952,-1.50343 14.58284,-0.91924 0.71542,0.94157 1.54835,1.90145 2.51765,2.8778 19.82312,19.96644 -11.64538,34.08569 -17.10049,-1.95856 z"
             id="path2419-7"
             inkscape:connector-curvature="0" />
          <path
             style="fill:#cccccc;fill-opacity:0.58823529;stroke:none;stroke-width:0.06823129"
             d="m 148.13541,154.0292 c 5.08671,8.08774 6.64477,18.31014 3.36471,28.03346 -4.15242,12.31009 -14.95879,20.56061 -27.06991,22.10479 5.64416,-9.89197 9.89956,-22.01382 12.15501,-26.09203 3.4582,-6.00172 8.41164,-14.99778 11.55019,-24.04622 z m -44.20774,46.01142 c -13.28748,-7.66118 -19.820798,-23.92883 -14.737587,-38.99746 1.323713,-3.92402 3.325281,-7.4343 5.827928,-10.44766 0.320332,0.60788 0.643343,1.23623 0.96639,1.88818 6.230129,2.10174 15.923439,4.71069 14.904839,12.62782 -0.40744,3.16684 -3.62054,15.63059 -0.65381,16.63119 2.67017,0.9008 13.7826,-5.59394 10.27986,4.7895 -1.09915,3.25795 -10.10993,8.37276 -16.58762,13.50843 z m 8.59323,-60.4037 c 3.76298,-0.93062 7.71581,-1.20463 11.68474,-0.73655 0.57326,0.75444 1.24064,1.52356 2.0173,2.30588 15.88359,15.99843 -9.33103,27.31169 -13.70204,-1.56933 z"
             id="path2419"
             inkscape:connector-curvature="0" />
        </g>
        <g
           id="g3127"
           transform="matrix(0.963817,0,0,0.963817,1.2342944,6.266132)">
          <g
             style="stroke:#b2b2b2;stroke-width:0.43382591;stroke-miterlimit:4;stroke-dasharray:0.4338259, 0.8676518;stroke-dashoffset:0;stroke-opacity:1"
             id="g3049">
            <path
               transform="matrix(-0.80372113,-0.44171513,-0.44171513,0.80372113,214.44659,137.84382)"
               inkscape:connector-curvature="0"
               id="path905"
               d="m 98.09655,140.51264 4.72778,34.29935"
               style="fill:none;stroke:#b2b2b2;stroke-width:0.47303888;stroke-linecap:butt;stroke-linejoin:miter;stroke-miterlimit:4;stroke-dasharray:0.47303889, 0.94607778;stroke-dashoffset:0;stroke-opacity:1"
               sodipodi:nodetypes="cc" />
            <path
               inkscape:connector-curvature="0"
               id="path899-3"
               d="m 122.70275,242.21065 36.84443,-33.95869"
               style="fill:none;stroke:#b2b2b2;stroke-width:0.43382591;stroke-linecap:butt;stroke-linejoin:miter;stroke-miterlimit:4;stroke-dasharray:0.4338259, 0.8676518;stroke-dashoffset:0;stroke-opacity:1"
               sodipodi:nodetypes="cc" />
            <path
               inkscape:connector-curvature="0"
               id="path899-3-6-5"
               d="m 106.94338,216.41911 52.94261,-8.32333"
               style="fill:none;stroke:#b2b2b2;stroke-width:0.43382591;stroke-linecap:butt;stroke-linejoin:miter;stroke-miterlimit:4;stroke-dasharray:0.4338259, 0.8676518;stroke-dashoffset:0;stroke-opacity:1"
               sodipodi:nodetypes="cc" />
            <path
               inkscape:connector-curvature="0"
               id="path899-3-3"
               d="m 122.65781,242.24472 64.8832,-8.3798"
               style="fill:none;stroke:#b2b2b2;stroke-width:0.43382591;stroke-linecap:butt;stroke-linejoin:miter;stroke-miterlimit:4;stroke-dasharray:0.4338259, 0.8676518;stroke-dashoffset:0;stroke-opacity:1"
               sodipodi:nodetypes="cc" />
            <path
               inkscape:connector-curvature="0"
               id="path899-3-3-5"
               d="m 160.64065,208.01461 26.91588,25.74552"
               style="fill:none;stroke:#b2b2b2;stroke-width:0.43382591;stroke-linecap:butt;stroke-linejoin:miter;stroke-miterlimit:4;stroke-dasharray:0.4338259, 0.8676518;stroke-dashoffset:0;stroke-opacity:1"
               sodipodi:nodetypes="cc" />
            <path
               style="fill:none;stroke:#b2b2b2;stroke-width:0.43382591;stroke-linecap:butt;stroke-linejoin:miter;stroke-miterlimit:4;stroke-dasharray:0.4338259, 0.8676518;stroke-dashoffset:0;stroke-opacity:1"
               d="m 20.269647,166.21347 -27.3638329,44.5242"
               id="path2946"
               inkscape:connector-curvature="0" />
            <path
               style="fill:none;fill-opacity:0.4745098;stroke:#b2b2b2;stroke-width:0.43382591;stroke-linecap:butt;stroke-linejoin:miter;stroke-miterlimit:4;stroke-dasharray:0.4338259, 0.8676518;stroke-dashoffset:0;stroke-opacity:1"
               d="M -6.8227556,210.09292 54.126592,232.99977"
               id="path2952"
               inkscape:connector-curvature="0"
               sodipodi:nodetypes="cc" />
            <path
               style="fill:none;stroke:#b2b2b2;stroke-width:0.43382591;stroke-linecap:butt;stroke-linejoin:miter;stroke-miterlimit:4;stroke-dasharray:0.4338259, 0.8676518;stroke-dashoffset:0;stroke-opacity:1"
               d="M -6.8341651,209.62913 19.033553,190.90594"
               id="path2958"
               inkscape:connector-curvature="0"
               sodipodi:nodetypes="cc" />
            <path
               style="fill:none;stroke:#b2b2b2;stroke-width:0.43382591;stroke-linecap:butt;stroke-linejoin:miter;stroke-miterlimit:4;stroke-dasharray:0.4338259, 0.8676518;stroke-dashoffset:0;stroke-opacity:1"
               d="m 20.452265,166.13313 -1.342103,24.66141"
               id="path2960"
               inkscape:connector-curvature="0"
               sodipodi:nodetypes="cc" />
            <path
               style="fill:none;stroke:#b2b2b2;stroke-width:0.43382591;stroke-linecap:butt;stroke-linejoin:miter;stroke-miterlimit:4;stroke-dasharray:0.4338259, 0.8676518;stroke-dashoffset:0;stroke-opacity:1"
               d="M -6.8622889,209.57819 44.89047,202.08999"
               id="path2977"
               inkscape:connector-curvature="0"
               sodipodi:nodetypes="cc" />
            <path
               style="fill:none;stroke:#b2b2b2;stroke-width:0.43382591;stroke-linecap:butt;stroke-linejoin:miter;stroke-miterlimit:4;stroke-dasharray:0.4338259, 0.8676518;stroke-dashoffset:0;stroke-opacity:1"
               d="m 44.655676,202.10821 27.790768,5.3829"
               id="path2979"
               inkscape:connector-curvature="0"
               sodipodi:nodetypes="cc" />
            <path
               style="fill:none;stroke:#b2b2b2;stroke-width:0.43382591;stroke-linecap:butt;stroke-linejoin:miter;stroke-miterlimit:4;stroke-dasharray:0.4338259, 0.8676518;stroke-dashoffset:0;stroke-opacity:1"
               d="m 20.831168,166.04369 51.327211,20.98794"
               id="path2960-2"
               inkscape:connector-curvature="0"
               sodipodi:nodetypes="cc" />
            <path
               style="fill:none;stroke:#b2b2b2;stroke-width:0.43382591;stroke-linecap:butt;stroke-linejoin:miter;stroke-miterlimit:4;stroke-dasharray:0.4338259, 0.8676518;stroke-dashoffset:0;stroke-opacity:1"
               d="M 44.965837,201.97114 72.300609,186.79973"
               id="path3008"
               inkscape:connector-curvature="0"
               sodipodi:nodetypes="cc" />
            <path
               style="fill:none;stroke:#b2b2b2;stroke-width:0.43382591;stroke-linecap:butt;stroke-linejoin:miter;stroke-miterlimit:4;stroke-dasharray:0.4338259, 0.8676518;stroke-dashoffset:0;stroke-opacity:1"
               d="m 72.91024,207.49111 36.93138,-15.09236"
               id="path3010"
               inkscape:connector-curvature="0"
               sodipodi:nodetypes="cc" />
            <path
               style="fill:none;stroke:#b2b2b2;stroke-width:0.43382591;stroke-linecap:butt;stroke-linejoin:miter;stroke-miterlimit:4;stroke-dasharray:0.4338259, 0.8676518;stroke-dashoffset:0;stroke-opacity:1"
               d="m 72.857677,186.69923 36.692273,5.71859"
               id="path3012"
               inkscape:connector-curvature="0"
               sodipodi:nodetypes="cc" />
            <path
               style="fill:none;stroke:#b2b2b2;stroke-width:0.43382591;stroke-linecap:butt;stroke-linejoin:miter;stroke-miterlimit:4;stroke-dasharray:0.4338259, 0.8676518;stroke-dashoffset:0;stroke-opacity:1"
               d="M 160.56726,208.1868 110.01374,192.33898"
               id="path3014"
               inkscape:connector-curvature="0"
               sodipodi:nodetypes="cc" />
            <path
               style="fill:none;stroke:#b2b2b2;stroke-width:0.43382591;stroke-linecap:butt;stroke-linejoin:miter;stroke-miterlimit:4;stroke-dasharray:0.4338259, 0.8676518;stroke-dashoffset:0;stroke-opacity:1"
               d="m 103.95093,216.84583 6.15608,-24.36102"
               id="path3016"
               inkscape:connector-curvature="0"
               sodipodi:nodetypes="cc" />
            <path
               style="fill:none;stroke:#b2b2b2;stroke-width:0.43382591;stroke-linecap:butt;stroke-linejoin:miter;stroke-miterlimit:4;stroke-dasharray:0.4338259, 0.8676518;stroke-dashoffset:0;stroke-opacity:1"
               d="M 122.33928,242.32143 103.98442,216.53509"
               id="path3018"
               inkscape:connector-curvature="0"
               sodipodi:nodetypes="cc" />
            <path
               style="fill:none;stroke:#b2b2b2;stroke-width:0.43382591;stroke-linecap:butt;stroke-linejoin:miter;stroke-miterlimit:4;stroke-dasharray:0.4338259, 0.8676518;stroke-dashoffset:0;stroke-opacity:1"
               d="m 72.771618,207.47205 30.662952,9.37378"
               id="path3020"
               inkscape:connector-curvature="0"
               sodipodi:nodetypes="cc" />
            <path
               style="fill:none;stroke:#b2b2b2;stroke-width:0.43382591;stroke-linecap:butt;stroke-linejoin:miter;stroke-miterlimit:4;stroke-dasharray:0.4338259, 0.8676518;stroke-dashoffset:0;stroke-opacity:1"
               d="m 19.057156,190.85665 25.793561,11.06894"
               id="path3022"
               inkscape:connector-curvature="0"
               sodipodi:nodetypes="cc" />
          </g>
          <circle
             transform="matrix(-0.8763685,-0.48164121,-0.48164121,0.8763685,0,0)"
             r="4.1415577"
             cy="115.84499"
             cx="-189.20061"
             id="path893-1"
             style="opacity:1;fill:#dedede;fill-opacity:1;fill-rule:nonzero;stroke:none;stroke-width:1.50453877;stroke-miterlimit:4;stroke-dasharray:none;stroke-dashoffset:0;stroke-opacity:1" />
          <circle
             transform="matrix(-0.8763685,-0.48164121,-0.48164121,0.8763685,0,0)"
             r="10.098084"
             cy="153.11246"
             cx="-224.03125"
             id="path877"
             style="opacity:1;fill:#dedede;fill-opacity:1;fill-rule:nonzero;stroke:none;stroke-width:1.83420825;stroke-miterlimit:4;stroke-dasharray:none;stroke-dashoffset:0;stroke-opacity:1" />
          <circle
             transform="matrix(-0.8763685,-0.48164121,-0.48164121,0.8763685,0,0)"
             r="4.1310339"
             cy="140.09489"
             cx="-195.32671"
             id="path879"
             style="opacity:1;fill:#dedede;fill-opacity:1;fill-rule:nonzero;stroke:none;stroke-width:1.83420825;stroke-miterlimit:4;stroke-dasharray:none;stroke-dashoffset:0;stroke-opacity:1" />
          <circle
             transform="matrix(-0.8763685,-0.48164121,-0.48164121,0.8763685,0,0)"
             r="5.4947786"
             cy="146.53339"
             cx="-163.90175"
             id="path883"
             style="opacity:1;fill:#dedede;fill-opacity:1;fill-rule:nonzero;stroke:none;stroke-width:3.8748498;stroke-miterlimit:4;stroke-dasharray:none;stroke-dashoffset:0;stroke-opacity:1" />
          <circle
             transform="matrix(-0.8763685,-0.48164121,-0.48164121,0.8763685,0,0)"
             r="9.1800766"
             cy="128.63455"
             cx="-153.33487"
             id="path887"
             style="opacity:1;fill:#dedede;fill-opacity:1;fill-rule:nonzero;stroke:none;stroke-width:1.83420825;stroke-miterlimit:4;stroke-dasharray:none;stroke-dashoffset:0;stroke-opacity:1" />
          <circle
             transform="matrix(-0.8763685,-0.48164121,-0.48164121,0.8763685,0,0)"
             r="4.437037"
             cy="157.83769"
             cx="-108.26719"
             id="path889"
             style="opacity:1;fill:#dedede;fill-opacity:1;fill-rule:nonzero;stroke:none;stroke-width:1.83420825;stroke-miterlimit:4;stroke-dasharray:none;stroke-dashoffset:0;stroke-opacity:1" />
          <circle
             transform="matrix(-0.8763685,-0.48164121,-0.48164121,0.8763685,0,0)"
             r="7.6500635"
             cy="155.2334"
             cx="-135.96223"
             id="path891"
             style="opacity:1;fill:#dedede;fill-opacity:1;fill-rule:nonzero;stroke:none;stroke-width:1.83420825;stroke-miterlimit:4;stroke-dasharray:none;stroke-dashoffset:0;stroke-opacity:1" />
          <circle
             transform="matrix(-0.8763685,-0.48164121,-0.48164121,0.8763685,0,0)"
             r="5.0490422"
             cy="178.29092"
             cx="-159.07794"
             id="path893"
             style="opacity:1;fill:#dedede;fill-opacity:1;fill-rule:nonzero;stroke:none;stroke-width:1.83420825;stroke-miterlimit:4;stroke-dasharray:none;stroke-dashoffset:0;stroke-opacity:1" />
          <circle
             transform="matrix(-0.8763685,-0.48164121,-0.48164121,0.8763685,0,0)"
             r="6.7320561"
             cy="135.35692"
             cx="-97.992004"
             id="path895"
             style="opacity:1;fill:#dedede;fill-opacity:1;fill-rule:nonzero;stroke:none;stroke-width:1.83420825;stroke-miterlimit:4;stroke-dasharray:none;stroke-dashoffset:0;stroke-opacity:1" />
          <circle
             transform="matrix(-0.8763685,-0.48164121,-0.48164121,0.8763685,0,0)"
             r="9.3330784"
             cy="186.99347"
             cx="-95.463188"
             id="path897"
             style="opacity:1;fill:#dedede;fill-opacity:1;fill-rule:nonzero;stroke:none;stroke-width:1.83420825;stroke-miterlimit:4;stroke-dasharray:none;stroke-dashoffset:0;stroke-opacity:1" />
          <circle
             r="5.5804296"
             cy="208.00375"
             cx="159.79924"
             id="path1992"
             style="opacity:1;fill:#dedede;fill-opacity:1;fill-rule:nonzero;stroke:none;stroke-width:0.88217902;stroke-miterlimit:4;stroke-dasharray:0.88217905, 1.7643581;stroke-dashoffset:0;stroke-opacity:1" />
          <circle
             r="4.6928387"
             cy="233.86543"
             cx="188.00771"
             id="path2633"
             style="opacity:1;fill:#dedede;fill-opacity:1;fill-rule:nonzero;stroke:none;stroke-width:0.87599653;stroke-miterlimit:4;stroke-dasharray:0.87599658, 1.75199317;stroke-dashoffset:0;stroke-opacity:1" />
          <g
             transform="matrix(0.71701555,0,0,0.71701555,71.218934,209.19413)"
             style="fill:#211e1e;fill-opacity:1"
             id="use435-6">
            <path
               style="stroke:none"
               d="m 3.9375,-2.390625 h -3.375 c -0.078125,0 -0.1875,-0.03125 -0.25,0.046875 -0.03125,0.03125 -0.03125,0.078125 -0.03125,0.125 0,0.09375 0,0.15625 0,0.25 0.03125,0.375 0.109375,0.75 0.296875,1.09375 0.0625,0.140625 0.15625,0.28125 0.265625,0.390625 0.703125,0.765625 1.90625,0.828125 2.765625,0.3125 0.25,-0.15625 0.484375,-0.359375 0.65625,-0.59375 0.890625,-1.15625 0.78125,-2.9375 -0.34375,-3.890625 C 3.6875,-4.859375 3.4375,-5.015625 3.15625,-5.109375 2.875,-5.21875 2.578125,-5.28125 2.296875,-5.28125 c -0.703125,0 -1.375,0.328125 -1.765625,0.9375 -0.09375,0.140625 -0.171875,0.296875 -0.21875,0.46875 -0.03125,0.0625 -0.046875,0.140625 0,0.203125 C 0.375,-3.59375 0.484375,-3.625 0.53125,-3.703125 0.59375,-3.84375 0.625,-3.96875 0.6875,-4.09375 c 0.203125,-0.375 0.5625,-0.671875 0.953125,-0.8125 0.171875,-0.078125 0.375,-0.109375 0.578125,-0.109375 0.15625,0 0.34375,0.03125 0.5,0.078125 0.140625,0.0625 0.265625,0.125 0.390625,0.21875 0.109375,0.078125 0.203125,0.171875 0.28125,0.265625 0.5,0.5625 0.546875,1.34375 0.546875,2.0625 z M 1.03125,-2.15625 H 3.9375 c 0,0.546875 -0.15625,1.171875 -0.546875,1.609375 -0.125,0.140625 -0.28125,0.265625 -0.46875,0.359375 C 2.546875,0 2.09375,-0.046875 1.75,-0.28125 1.640625,-0.375 1.546875,-0.453125 1.453125,-0.5625 1.125,-1 1.03125,-1.609375 1.03125,-2.15625 Z m 0,0"
               id="path2762"
               inkscape:connector-curvature="0" />
          </g>
          <g
             transform="matrix(0.71701555,0,0,0.71701555,101.33319,218.75198)"
             style="fill:#211e1e;fill-opacity:1"
             id="use743">
            <path
               style="stroke:none"
               d="m 0.375,-5.15625 v 0.34375 c 0.1875,0 0.359375,0 0.53125,0.03125 0.109375,0.03125 0.234375,0.078125 0.296875,0.171875 0.078125,0.109375 0.09375,0.265625 0.09375,0.40625 v 3.34375 c 0,0.125 0,0.25 -0.078125,0.34375 C 1.15625,-0.4375 1.046875,-0.390625 0.9375,-0.375 0.75,-0.359375 0.578125,-0.359375 0.375,-0.359375 v 0.34375 L 1,-0.03125 h 1.296875 l 0.671875,0.015625 v -0.34375 c -0.1875,0 -0.359375,0 -0.546875,-0.015625 C 2.3125,-0.390625 2.21875,-0.421875 2.15625,-0.5 2.0625,-0.625 2.0625,-0.78125 2.0625,-0.9375 v -1.796875 c 0,-0.234375 0,-0.484375 0.03125,-0.71875 0.0625,-0.46875 0.265625,-0.921875 0.625,-1.234375 0.125,-0.109375 0.25,-0.171875 0.390625,-0.25 0.171875,-0.078125 0.359375,-0.109375 0.546875,-0.109375 0.234375,0 0.453125,0.09375 0.59375,0.25 0.15625,0.15625 0.203125,0.359375 0.25,0.546875 0.0625,0.34375 0.046875,0.6875 0.046875,1.03125 v 2.3125 c 0,0.125 0,0.28125 -0.078125,0.390625 C 4.40625,-0.4375 4.296875,-0.390625 4.203125,-0.375 4,-0.359375 3.828125,-0.359375 3.640625,-0.359375 v 0.34375 L 4.25,-0.03125 h 1.296875 l 0.6875,0.015625 v -0.34375 H 6.0625 c -0.265625,0 -0.671875,0.03125 -0.734375,-0.3125 C 5.3125,-0.78125 5.3125,-0.890625 5.3125,-1 v -2.3125 c 0,-0.453125 0.03125,-0.9375 -0.21875,-1.34375 -0.234375,-0.40625 -0.671875,-0.578125 -1.109375,-0.609375 -0.1875,-0.015625 -0.390625,-0.03125 -0.578125,0 -0.46875,0.09375 -0.875,0.359375 -1.140625,0.75 -0.109375,0.140625 -0.203125,0.3125 -0.25,0.46875 V -5.28125 Z m 0,0"
               id="path2774"
               inkscape:connector-curvature="0" />
          </g>
          <g
             transform="matrix(0.71701555,0,0,0.71701555,19.037608,167.69628)"
             style="fill:#211e1e;fill-opacity:1"
             id="use755">
            <path
               style="stroke:none"
               d="m 1.03125,-0.453125 c 0.0625,0.09375 0.15625,0.171875 0.25,0.25 C 1.515625,-0.03125 1.796875,0.0625 2.078125,0.09375 2.65625,0.15625 3.375,0.03125 3.796875,-0.390625 3.984375,-0.59375 4.09375,-0.84375 4.15625,-1.109375 4.296875,-1.65625 4.140625,-2.21875 3.765625,-2.609375 3.640625,-2.71875 3.5,-2.828125 3.34375,-2.921875 3.03125,-3.09375 2.6875,-3.15625 2.34375,-3.234375 1.859375,-3.328125 1.25,-3.40625 1,-3.90625 0.96875,-3.96875 0.953125,-4.046875 0.9375,-4.109375 c 0,-0.078125 0,-0.15625 0,-0.234375 0.09375,-0.4375 0.46875,-0.671875 0.890625,-0.75 0.484375,-0.078125 1.015625,-0.046875 1.40625,0.296875 0.0625,0.078125 0.125,0.140625 0.171875,0.21875 0.078125,0.109375 0.125,0.234375 0.171875,0.34375 0.03125,0.125 0.0625,0.25 0.0625,0.390625 0.015625,0.0625 0,0.15625 0.03125,0.234375 0.03125,0.0625 0.140625,0.078125 0.203125,0.03125 0.046875,-0.015625 0.046875,-0.09375 0.046875,-0.140625 0,-0.125 0,-0.21875 0,-0.34375 V -5 c 0,-0.078125 0.03125,-0.265625 -0.046875,-0.3125 -0.109375,-0.109375 -0.25,0.09375 -0.328125,0.15625 -0.0625,0.0625 -0.109375,0.125 -0.15625,0.1875 C 3.25,-5.09375 3.078125,-5.1875 2.90625,-5.25 2.625,-5.34375 2.3125,-5.359375 2.015625,-5.328125 c -0.59375,0.046875 -1.234375,0.265625 -1.5,0.84375 -0.03125,0.09375 -0.078125,0.203125 -0.09375,0.3125 C 0.375,-4 0.375,-3.796875 0.421875,-3.625 c 0.015625,0.109375 0.0625,0.21875 0.109375,0.3125 0.0625,0.109375 0.140625,0.203125 0.21875,0.28125 0.46875,0.484375 1.109375,0.5625 1.71875,0.6875 0.15625,0.03125 0.296875,0.0625 0.4375,0.125 0.34375,0.125 0.65625,0.40625 0.734375,0.78125 0.03125,0.125 0.03125,0.25 0.015625,0.359375 -0.015625,0.125 -0.046875,0.25 -0.109375,0.359375 C 3.28125,-0.1875 2.59375,-0.078125 2.0625,-0.15625 1.46875,-0.234375 1.078125,-0.6875 0.875,-1.21875 0.8125,-1.375 0.75,-1.53125 0.71875,-1.703125 0.6875,-1.796875 0.6875,-1.90625 0.640625,-2 0.625,-2.0625 0.53125,-2.078125 0.453125,-2.0625 c -0.0625,0.046875 -0.0625,0.125 -0.0625,0.1875 v 1.640625 c 0,0.09375 -0.046875,0.328125 0.109375,0.34375 0.078125,0 0.140625,-0.078125 0.1875,-0.140625 0.109375,-0.140625 0.21875,-0.296875 0.34375,-0.421875 z m 0,0"
               id="path2798"
               inkscape:connector-curvature="0" />
          </g>
          <g
             transform="matrix(0.71701555,0,0,0.71701555,17.718073,192.32408)"
             style="fill:#211e1e;fill-opacity:1"
             id="use447">
            <path
               style="stroke:none"
               d="m 0.421875,-5.15625 v 0.265625 c 0.15625,0 0.3125,0 0.46875,0.03125 0.109375,0.015625 0.203125,0.046875 0.25,0.15625 0.0625,0.09375 0.0625,0.21875 0.0625,0.34375 v 3.53125 c 0,0.125 0.015625,0.25 -0.0625,0.359375 C 1.09375,-0.375 1,-0.328125 0.890625,-0.3125 c -0.15625,0.03125 -0.3125,0.03125 -0.46875,0.03125 v 0.265625 l 0.625,-0.015625 h 1.15625 l 0.5625,0.015625 V -0.28125 c -0.140625,0 -0.3125,0 -0.46875,-0.03125 C 2.1875,-0.328125 2.09375,-0.375 2.046875,-0.46875 1.96875,-0.578125 1.984375,-0.703125 1.984375,-0.828125 v -3.53125 c 0,-0.125 0,-0.25 0.0625,-0.34375 0.046875,-0.109375 0.140625,-0.140625 0.25,-0.15625 0.15625,-0.03125 0.328125,-0.03125 0.46875,-0.03125 V -5.15625 l -0.5625,0.015625 h -1.15625 z m 0,0"
               id="path2810"
               inkscape:connector-curvature="0" />
          </g>
          <g
             transform="matrix(0.71701555,0,0,0.71701555,-8.3745214,211.71222)"
             style="fill:#211e1e;fill-opacity:1"
             id="use459">
            <path
               style="stroke:none"
               d="m 1.953125,-2.796875 v 0.03125 c -0.1875,0.015625 -0.375,0.09375 -0.546875,0.1875 -0.5,0.25 -0.96875,0.703125 -0.921875,1.3125 0.015625,0.125 0.046875,0.21875 0.09375,0.328125 0.0625,0.1875 0.171875,0.34375 0.3125,0.484375 0.25,0.28125 0.640625,0.484375 1.015625,0.578125 0.90625,0.25 1.9375,0.078125 2.671875,-0.53125 C 4.6875,-0.5 4.796875,-0.59375 4.890625,-0.703125 4.9375,-0.75 4.984375,-0.796875 5.015625,-0.859375 5.03125,-0.9375 4.984375,-1.09375 4.890625,-1.09375 c -0.046875,0 -0.09375,0.03125 -0.125,0.0625 -0.0625,0.078125 -0.109375,0.140625 -0.1875,0.203125 -0.234375,0.21875 -0.484375,0.390625 -0.78125,0.53125 -0.46875,0.203125 -1.078125,0.3125 -1.578125,0.125 C 2,-0.28125 1.796875,-0.421875 1.65625,-0.625 1.375,-1.046875 1.390625,-1.71875 1.671875,-2.15625 c 0.28125,-0.390625 0.734375,-0.515625 1.1875,-0.515625 0.109375,0 0.390625,0.046875 0.375,-0.140625 0,-0.109375 -0.109375,-0.109375 -0.203125,-0.109375 -0.203125,-0.015625 -0.4375,0 -0.640625,-0.046875 C 1.71875,-3.171875 1.40625,-4.015625 1.75,-4.609375 1.796875,-4.6875 1.84375,-4.75 1.90625,-4.8125 c 0.3125,-0.296875 0.734375,-0.328125 1.15625,-0.296875 0.140625,0 0.28125,0 0.421875,0.03125 0.171875,0.03125 0.34375,0.0625 0.5,0.125 0.171875,0.078125 0.3125,0.15625 0.46875,0.296875 -0.109375,0 -0.203125,0.03125 -0.28125,0.09375 -0.1875,0.140625 -0.234375,0.4375 -0.078125,0.625 0.09375,0.09375 0.234375,0.15625 0.375,0.140625 C 4.734375,-3.8125 4.875,-4.03125 4.859375,-4.28125 c 0,-0.296875 -0.171875,-0.5625 -0.40625,-0.734375 C 4.1875,-5.21875 3.859375,-5.296875 3.53125,-5.359375 3,-5.4375 2.421875,-5.453125 1.90625,-5.3125 1.46875,-5.1875 1,-4.9375 0.78125,-4.53125 0.734375,-4.4375 0.6875,-4.328125 0.65625,-4.21875 0.640625,-4.140625 0.640625,-4.0625 0.640625,-3.984375 0.65625,-3.4375 1.125,-3.078125 1.59375,-2.90625 c 0.109375,0.046875 0.234375,0.09375 0.359375,0.109375 z m 0,0"
               id="path2822"
               inkscape:connector-curvature="0" />
          </g>
          <g
             transform="matrix(0.71701555,0,0,0.71701555,42.173552,203.33602)"
             style="fill:#211e1e;fill-opacity:1"
             id="use875">
            <path
               style="stroke:none"
               d="m 0.21875,-5.15625 v 0.34375 c 0.21875,0 0.546875,-0.046875 0.734375,0.125 0.125,0.09375 0.1875,0.25 0.234375,0.390625 0.09375,0.21875 0.171875,0.453125 0.265625,0.65625 0.296875,0.8125 0.625,1.59375 0.953125,2.390625 0.140625,0.359375 0.265625,0.703125 0.421875,1.046875 0.046875,0.125 0.09375,0.3125 0.25,0.3125 0.171875,0 0.21875,-0.171875 0.265625,-0.296875 0.140625,-0.34375 0.265625,-0.671875 0.390625,-1 C 4.09375,-2.046875 4.421875,-2.90625 4.75,-3.75 4.84375,-3.953125 4.90625,-4.171875 5.046875,-4.34375 5.25,-4.65625 5.578125,-4.8125 5.953125,-4.8125 V -5.15625 L 5.53125,-5.140625 H 4.625 L 4.09375,-5.15625 v 0.34375 c 0.28125,0 0.5625,0.203125 0.5625,0.515625 C 4.640625,-4.140625 4.5625,-4 4.515625,-3.84375 4.25,-3.21875 4,-2.5625 3.75,-1.9375 3.65625,-1.703125 3.5625,-1.46875 3.484375,-1.25 3.4375,-1.140625 3.375,-1.03125 3.359375,-0.921875 3.28125,-1 3.265625,-1.125 3.234375,-1.21875 3.140625,-1.40625 3.078125,-1.59375 3,-1.765625 c -0.234375,-0.625 -0.484375,-1.25 -0.734375,-1.875 L 2.015625,-4.25 C 1.96875,-4.34375 1.921875,-4.453125 1.953125,-4.5625 1.96875,-4.65625 2.046875,-4.703125 2.125,-4.75 2.265625,-4.8125 2.453125,-4.8125 2.609375,-4.8125 V -5.15625 L 1.9375,-5.140625 H 0.75 Z m 0,0"
               id="path2858"
               inkscape:connector-curvature="0" />
          </g>
          <g
             transform="matrix(0.71701555,0,0,0.71701555,120.66767,244.79196)"
             style="fill:#211e1e;fill-opacity:1"
             id="use679">
            <path
               style="stroke:none"
               d="M 2.546875,-8.421875 C 1.734375,-8.328125 1.25,-7.5 0.984375,-6.828125 c -0.40625,0.96875 -0.515625,2.046875 -0.453125,3.09375 0.03125,0.703125 0.125,1.375 0.375,2.046875 0.046875,0.125 0.09375,0.25 0.140625,0.375 C 1.34375,-0.703125 1.78125,0 2.515625,0.09375 c 0.09375,0.015625 0.1875,0.015625 0.28125,0.015625 0.6875,-0.078125 1.140625,-0.6875 1.421875,-1.25 C 4.265625,-1.25 4.328125,-1.359375 4.375,-1.484375 4.765625,-2.46875 4.890625,-3.53125 4.828125,-4.578125 4.796875,-5.28125 4.703125,-5.984375 4.453125,-6.65625 4.40625,-6.78125 4.34375,-6.890625 4.296875,-7.015625 4,-7.625 3.5625,-8.3125 2.828125,-8.421875 c -0.09375,0 -0.1875,0 -0.28125,0 z M 1.4375,-4.34375 c 0,-1 0.046875,-2 0.390625,-2.953125 0.125,-0.375 0.390625,-0.890625 0.84375,-0.890625 0.46875,0 0.71875,0.515625 0.859375,0.890625 0.34375,0.953125 0.390625,1.953125 0.390625,2.953125 z m 0,0.359375 h 2.484375 c 0,1.015625 -0.046875,2.015625 -0.390625,2.96875 C 3.390625,-0.640625 3.140625,-0.125 2.671875,-0.125 2.21875,-0.125 1.953125,-0.640625 1.828125,-1.015625 1.484375,-1.96875 1.4375,-2.96875 1.4375,-3.984375 Z m 0,0"
               id="path2870"
               inkscape:connector-curvature="0" />
          </g>
          <g
             transform="matrix(0.71701555,0,0,0.71701555,51.933507,235.89379)"
             style="fill:#211e1e;fill-opacity:1"
             id="use851">
            <path
               style="stroke:none"
               d="M 1.296875,-5.15625 H 0.375 v 0.34375 h 0.921875 v 3.90625 c 0,0.125 0.015625,0.28125 -0.0625,0.390625 -0.0625,0.078125 -0.171875,0.125 -0.28125,0.140625 -0.1875,0.015625 -0.375,0.015625 -0.5625,0.015625 v 0.34375 l 0.625,-0.015625 h 1.40625 L 3.1875,-0.015625 v -0.34375 c -0.234375,0 -0.46875,0 -0.703125,-0.015625 -0.125,-0.015625 -0.25,-0.046875 -0.328125,-0.125 C 2.0625,-0.609375 2.0625,-0.765625 2.0625,-0.90625 V -4.8125 h 1.34375 v -0.34375 h -1.375 v -1.140625 c 0,-0.390625 0,-0.78125 0.15625,-1.140625 0.15625,-0.359375 0.453125,-0.734375 0.875,-0.75 0.15625,0 0.296875,0.03125 0.4375,0.09375 C 3.40625,-8.0625 3.3125,-8.015625 3.234375,-7.921875 3.078125,-7.703125 3.125,-7.375 3.34375,-7.21875 c 0.109375,0.078125 0.234375,0.078125 0.375,0.078125 0.328125,-0.0625 0.4375,-0.40625 0.359375,-0.6875 C 4,-8.0625 3.828125,-8.21875 3.625,-8.3125 3.390625,-8.421875 3.140625,-8.4375 2.90625,-8.421875 c -0.6875,0.078125 -1.296875,0.5625 -1.515625,1.234375 -0.09375,0.296875 -0.09375,0.609375 -0.09375,0.921875 z m 0,0"
               id="path2900"
               inkscape:connector-curvature="0" />
          </g>
          <g
             transform="matrix(0.71701555,0,0,0.71701555,69.324964,188.45891)"
             style="fill:#211e1e;fill-opacity:1"
             id="use499">
            <path
               style="stroke:none"
               d="M 1.25,-4.40625 C 1.484375,-4.8125 1.953125,-5.046875 2.421875,-5.09375 2.5625,-5.109375 2.71875,-5.109375 2.875,-5.0625 c 0.28125,0.078125 0.5,0.25 0.671875,0.484375 0.34375,0.46875 0.296875,1.046875 0.296875,1.59375 -0.53125,0 -1.0625,0.0625 -1.5625,0.1875 -0.328125,0.078125 -0.671875,0.21875 -0.953125,0.40625 C 0.8125,-2.0625 0.375,-1.40625 0.578125,-0.78125 c 0.03125,0.09375 0.078125,0.171875 0.125,0.25 0.0625,0.09375 0.140625,0.171875 0.234375,0.25 0.28125,0.203125 0.609375,0.3125 0.953125,0.359375 0.203125,0.03125 0.421875,0.046875 0.625,0.03125 0.71875,-0.03125 1.515625,-0.390625 1.828125,-1.078125 0.171875,0.25 0.375,0.46875 0.625,0.640625 0.5625,0.40625 1.328125,0.5625 1.96875,0.3125 C 7.40625,-0.1875 7.78125,-0.578125 7.984375,-1.03125 8.03125,-1.125 8.0625,-1.234375 8.09375,-1.34375 8.109375,-1.390625 8.125,-1.453125 8.09375,-1.5 8.046875,-1.578125 7.90625,-1.5625 7.859375,-1.484375 7.84375,-1.4375 7.828125,-1.375 7.8125,-1.328125 7.78125,-1.234375 7.75,-1.140625 7.703125,-1.046875 7.46875,-0.609375 7.0625,-0.25 6.578125,-0.171875 6.40625,-0.140625 6.234375,-0.15625 6.0625,-0.1875 5.890625,-0.234375 5.71875,-0.296875 5.578125,-0.390625 5.46875,-0.46875 5.359375,-0.5625 5.265625,-0.65625 c -0.5625,-0.578125 -0.65625,-1.359375 -0.65625,-2.125 H 7.8125 c 0.078125,0 0.203125,0.015625 0.25,-0.046875 0.046875,-0.03125 0.046875,-0.09375 0.046875,-0.140625 0,-0.140625 0,-0.265625 -0.015625,-0.40625 C 8.046875,-3.9375 7.84375,-4.546875 7.390625,-4.921875 6.75,-5.453125 5.828125,-5.46875 5.125,-5.0625 4.84375,-4.90625 4.609375,-4.65625 4.40625,-4.40625 4.265625,-4.65625 4.046875,-4.875 3.796875,-5.015625 3.25,-5.34375 2.5625,-5.4375 1.953125,-5.25 c -0.40625,0.140625 -0.78125,0.390625 -0.96875,0.796875 -0.09375,0.203125 -0.171875,0.5 -0.09375,0.71875 C 1,-3.40625 1.421875,-3.296875 1.6875,-3.515625 1.90625,-3.6875 1.921875,-4.09375 1.703125,-4.28125 c -0.125,-0.125 -0.28125,-0.125 -0.453125,-0.125 z m 3.375,1.390625 c 0.03125,-0.640625 0.234375,-1.34375 0.734375,-1.78125 0.359375,-0.28125 0.84375,-0.421875 1.25,-0.171875 0.53125,0.3125 0.6875,0.96875 0.734375,1.53125 0,0.15625 0.015625,0.28125 0.015625,0.421875 z m -0.78125,0.25 c 0,0.21875 0,0.421875 0.03125,0.640625 0.015625,0.125 0.0625,0.265625 0.09375,0.40625 0.015625,0.171875 -0.015625,0.328125 -0.046875,0.484375 -0.078125,0.25 -0.203125,0.46875 -0.390625,0.65625 C 3.203125,-0.25 2.6875,-0.0625 2.21875,-0.15625 2.109375,-0.171875 2.015625,-0.21875 1.921875,-0.265625 1.84375,-0.296875 1.78125,-0.359375 1.703125,-0.40625 c -0.34375,-0.328125 -0.375,-0.828125 -0.1875,-1.234375 0.09375,-0.171875 0.1875,-0.3125 0.328125,-0.453125 0.1875,-0.1875 0.421875,-0.328125 0.671875,-0.421875 0.25,-0.09375 0.53125,-0.15625 0.8125,-0.203125 0.15625,-0.015625 0.34375,-0.015625 0.515625,-0.046875 z m 0,0"
               id="path2912"
               inkscape:connector-curvature="0" />
          </g>
          <g
             transform="matrix(0.71701555,0,0,0.71701555,108.80937,195.63541)"
             style="fill:#211e1e;fill-opacity:1"
             id="use791">
            <path
               style="stroke:none"
               d="m 0.390625,-8.171875 v 0.34375 c 0.296875,0 0.75,-0.046875 0.875,0.28125 0.0625,0.1875 0.03125,0.40625 0.03125,0.59375 v 6.109375 c 0,0.09375 0,0.1875 -0.03125,0.265625 -0.046875,0.125 -0.171875,0.171875 -0.28125,0.203125 -0.203125,0.015625 -0.40625,0.015625 -0.59375,0.015625 v 0.34375 l 0.625,-0.015625 H 2.28125 l 0.6875,0.015625 v -0.34375 c -0.1875,0 -0.375,0 -0.546875,-0.015625 C 2.328125,-0.390625 2.234375,-0.40625 2.15625,-0.46875 2.015625,-0.59375 2.0625,-0.84375 2.0625,-1 v -7.3125 z m 0,0"
               id="path2924"
               inkscape:connector-curvature="0" />
          </g>
          <g
             transform="matrix(0.71701555,0,0,0.71701555,157.43973,209.85791)"
             style="fill:#211e1e;fill-opacity:1"
             id="use527">
            <path
               style="stroke:none"
               d="M 4.453125,-0.71875 H 4.46875 V 0.109375 L 6.15625,-0.03125 V -0.375 c -0.1875,0 -0.34375,0 -0.53125,-0.015625 C 5.515625,-0.421875 5.40625,-0.46875 5.328125,-0.5625 5.234375,-0.6875 5.25,-0.890625 5.25,-1.046875 V -5.28125 l -0.234375,0.015625 -0.125,0.21875 -0.328125,0.625 c -0.21875,-0.3125 -0.5,-0.5625 -0.859375,-0.734375 C 3.421875,-5.265625 3.09375,-5.296875 2.78125,-5.265625 2.09375,-5.21875 1.453125,-4.859375 1.015625,-4.3125 0.25,-3.328125 0.234375,-1.9375 0.9375,-0.921875 1.5,-0.125 2.53125,0.3125 3.484375,0.015625 3.625,-0.03125 3.765625,-0.09375 3.890625,-0.171875 4.109375,-0.3125 4.34375,-0.484375 4.453125,-0.71875 Z M 1.34375,-2.296875 c -0.015625,-0.203125 0,-0.421875 0,-0.625 C 1.390625,-3.53125 1.53125,-4.15625 2,-4.609375 2.078125,-4.6875 2.171875,-4.75 2.265625,-4.8125 2.703125,-5.078125 3.234375,-5.109375 3.6875,-4.890625 3.859375,-4.8125 4,-4.703125 4.125,-4.5625 c 0.09375,0.09375 0.171875,0.21875 0.265625,0.328125 0.03125,0.0625 0.0625,0.140625 0.078125,0.203125 0.03125,0.234375 0,0.46875 0,0.703125 v 1.84375 c 0,0.078125 0.015625,0.1875 -0.015625,0.28125 C 4.4375,-1.109375 4.359375,-1 4.296875,-0.921875 3.9375,-0.375 3.25,0 2.59375,-0.171875 2.46875,-0.21875 2.359375,-0.265625 2.265625,-0.328125 2.09375,-0.421875 1.9375,-0.5625 1.8125,-0.71875 1.546875,-1.046875 1.4375,-1.453125 1.375,-1.875 1.359375,-2.015625 1.359375,-2.15625 1.34375,-2.296875 Z m 0,0"
               id="path2936"
               inkscape:connector-curvature="0" />
          </g>
          <g
             transform="matrix(0.71701555,0,0,0.71701555,184.9828,235.67478)"
             style="fill:#211e1e;fill-opacity:1"
             id="use899">
            <path
               style="stroke:none"
               d="m 0.203125,-5.15625 v 0.34375 c 0.234375,0 0.53125,-0.03125 0.703125,0.125 0.09375,0.09375 0.140625,0.234375 0.1875,0.359375 0.078125,0.21875 0.15625,0.4375 0.234375,0.640625 0.296875,0.828125 0.578125,1.671875 0.875,2.5 0.109375,0.328125 0.21875,0.65625 0.34375,0.984375 0.046875,0.125 0.078125,0.296875 0.234375,0.3125 0.171875,0 0.203125,-0.140625 0.25,-0.28125 C 3.140625,-0.484375 3.25,-0.78125 3.359375,-1.09375 3.46875,-1.390625 3.578125,-1.6875 3.6875,-1.984375 3.796875,-2.3125 3.90625,-2.625 4.015625,-2.953125 c 0.078125,-0.1875 0.125,-0.375 0.203125,-0.5625 0.078125,0.1875 0.125,0.375 0.203125,0.5625 C 4.53125,-2.625 4.65625,-2.3125 4.75,-2 c 0.109375,0.3125 0.21875,0.609375 0.328125,0.921875 0.109375,0.296875 0.21875,0.609375 0.328125,0.90625 0.046875,0.125 0.078125,0.28125 0.234375,0.28125 0.171875,0 0.203125,-0.171875 0.25,-0.296875 C 6,-0.515625 6.125,-0.84375 6.234375,-1.171875 c 0.3125,-0.890625 0.625,-1.78125 0.9375,-2.671875 0.0625,-0.171875 0.125,-0.359375 0.21875,-0.5 0.1875,-0.3125 0.5,-0.46875 0.84375,-0.46875 v -0.34375 l -0.40625,0.015625 H 6.90625 L 6.328125,-5.15625 v 0.34375 c 0.328125,0 0.71875,0.234375 0.671875,0.609375 -0.015625,0.140625 -0.078125,0.265625 -0.125,0.40625 -0.078125,0.25 -0.171875,0.5 -0.265625,0.75 -0.25,0.703125 -0.515625,1.421875 -0.75,2.140625 -0.0625,-0.125 -0.09375,-0.25 -0.140625,-0.375 C 5.65625,-1.484375 5.578125,-1.671875 5.515625,-1.875 5.3125,-2.4375 5.109375,-3 4.90625,-3.5625 4.84375,-3.78125 4.765625,-4 4.6875,-4.21875 4.65625,-4.328125 4.59375,-4.453125 4.609375,-4.546875 4.6875,-4.828125 5.078125,-4.8125 5.296875,-4.8125 V -5.15625 L 4.65625,-5.140625 H 3.546875 l -0.5,-0.015625 v 0.34375 c 0.234375,0 0.53125,-0.03125 0.71875,0.140625 C 3.875,-4.546875 3.921875,-4.375 3.96875,-4.21875 4,-4.125 4.078125,-4 4.0625,-3.90625 4.046875,-3.828125 4,-3.734375 3.984375,-3.640625 c -0.0625,0.1875 -0.140625,0.375 -0.203125,0.5625 C 3.625,-2.625 3.46875,-2.171875 3.3125,-1.734375 3.234375,-1.5 3.125,-1.265625 3.0625,-1.03125 H 3.046875 C 3.03125,-1.140625 2.96875,-1.25 2.921875,-1.375 2.875,-1.578125 2.796875,-1.765625 2.71875,-1.96875 2.53125,-2.5 2.359375,-3.03125 2.15625,-3.5625 2.078125,-3.78125 2.015625,-4 1.921875,-4.21875 1.890625,-4.328125 1.828125,-4.453125 1.859375,-4.5625 1.890625,-4.65625 1.96875,-4.71875 2.0625,-4.75 2.21875,-4.8125 2.375,-4.8125 2.53125,-4.8125 V -5.15625 L 1.875,-5.140625 H 0.71875 Z m 0,0"
               id="path2989"
               inkscape:connector-curvature="0" />
          </g>
        </g>
      </g>
    </g>
  </g>
</svg>
